<svg width="316" height="240" viewBox="0 0 316 240" fill="none" xmlns="http://www.w3.org/2000/svg">
<path d="M79.4056 9.10849C98.7784 -0.519379 121.689 -2.58316 142.493 3.24399C154.437 6.54978 165.658 12.4361 175.222 20.3426C182.732 26.5215 189.173 33.9673 194.372 42.1975C206.102 38.3968 218.971 38.2847 230.806 41.7212C241.402 44.7998 251.152 50.7608 258.736 58.8105C264.79 65.1637 269.459 72.8243 272.415 81.0981C281.145 83.5728 289.327 88.0178 296.081 94.1127C308.105 104.777 315.513 120.522 315.956 136.643C316.408 148.282 313.354 160.02 307.284 169.943C298.588 184.349 283.59 194.737 267.052 197.622C260.511 198.908 253.823 198.482 247.202 198.556C227.801 198.55 208.401 198.566 189 198.547C221.679 179.571 254.371 160.608 287.047 141.623C248.76 119.463 210.526 97.2099 172.257 75.0157C154.037 64.426 135.792 53.8767 117.584 43.2621C117.597 51.6635 117.584 60.068 117.59 68.4726C159.549 92.8302 201.507 117.197 243.475 141.539C243.478 141.589 243.481 141.686 243.484 141.735C203.186 165.112 162.898 188.511 122.6 211.895C106.477 221.27 90.3235 230.59 74.2255 240C74.2317 207.185 74.2286 174.37 74.2255 141.552C65.9596 141.561 57.6938 141.552 49.4279 141.558C49.4403 160.281 49.4217 179.005 49.4341 197.728C38.0546 195.761 27.2792 190.401 18.8677 182.448C11.4414 175.49 5.83372 166.594 2.77274 156.867C-1.28275 144.051 -0.886185 129.851 3.94074 117.303C8.7243 104.727 17.8886 93.8948 29.4727 87.1245C29.8134 74.3651 32.8899 61.6742 38.5038 50.2192C47.1136 32.4731 61.7493 17.7652 79.4056 9.10849Z" fill="white" fill-opacity="0.0530212"/>
</svg>
